<svg width="14" height="14" viewBox="0 0 14 14" fill="none" xmlns="http://www.w3.org/2000/svg">
<path d="M5.39337 9.01324L5.17857 10.289C5.14929 10.4635 5.22085 10.6392 5.36364 10.7433C5.50666 10.8472 5.69656 10.8611 5.85281 10.7792L6.99983 10.1805L8.14686 10.7793C8.21472 10.8145 8.28909 10.8323 8.36267 10.8323C8.45902 10.8323 8.55515 10.8021 8.63625 10.7434C8.77915 10.6393 8.85094 10.4636 8.82144 10.2892L8.60686 9.01336L9.53045 8.10738C9.65675 7.98366 9.70173 7.79903 9.64756 7.631C9.59315 7.46308 9.44756 7.34015 9.2728 7.31435L7.99297 7.12456L7.41654 5.96598C7.33836 5.80782 7.17639 5.70766 6.99972 5.70766C6.82339 5.70766 6.66154 5.80782 6.58268 5.96598L6.00681 7.12456L4.72698 7.31424C4.55188 7.34004 4.40696 7.46297 4.35245 7.63089C4.29794 7.79892 4.3428 7.98377 4.46933 8.10726L5.39337 9.01324Z" fill="white"/>
<path d="M12.5003 1.48835H11.0348V0.675474C11.0348 0.302404 10.7324 0 10.3593 0H10.2521C9.87906 0 9.57677 0.302404 9.57677 0.675474V1.48835H4.40617V0.675474C4.40617 0.302404 4.10376 0 3.73081 0H3.62357C3.2505 0 2.94821 0.302404 2.94821 0.675474V1.48835H1.49979C0.733346 1.48835 0.109581 2.1119 0.109581 2.87856V12.6099C0.109581 13.3761 0.733346 14.0001 1.49979 14.0001H12.5004C13.2668 14.0001 13.8906 13.3762 13.8906 12.6099V2.87856C13.8905 2.1119 13.2666 1.48835 12.5003 1.48835ZM12.3189 12.4285H1.68116V4.85328H12.3189V12.4285Z" fill="white"/>
</svg>
